<svg xmlns="http://www.w3.org/2000/svg" version="1.1" x="0" y="0" width="302.8" height="46.3" viewBox="52 26 302.8 46.3" enable-background="new 52 26 302.75 46.25" xml:space="preserve"><g enable-background="new    "><path fill="#4D4D4D" d="M81 65.1c-1.4 1.8-3.2 3.2-5.4 4.2 -2.2 1-4.4 1.5-6.7 1.5 -2.2 0-4.3-0.4-6.2-1.1 -1.9-0.7-3.6-1.7-5.1-3 -1.4-1.3-2.6-2.9-3.4-4.7 -0.8-1.8-1.2-3.9-1.2-6.2 0-2.3 0.4-4.3 1.2-6.2 0.8-1.8 2-3.4 3.4-4.7 1.4-1.3 3.1-2.3 5.1-3 1.9-0.7 4-1.1 6.2-1.1 2 0 3.9 0.4 5.6 1.1 1.7 0.7 3.1 1.7 4.2 3 1.2 1.3 2.1 2.9 2.7 4.8 0.6 1.8 0.9 3.9 0.9 6.2v2.8H61.9c0.4 1.7 1.1 3 2.3 4C65.3 63.5 66.8 64 68.5 64c1.5 0 2.7-0.3 3.7-1 1-0.6 1.9-1.5 2.6-2.5L81 65.1zM73.5 52.4c0-1.5-0.5-2.8-1.5-3.8 -1-1.1-2.3-1.6-4-1.6 -1 0-1.8 0.2-2.6 0.5 -0.7 0.3-1.4 0.7-1.9 1.2 -0.5 0.5-0.9 1.1-1.2 1.7s-0.5 1.3-0.5 2H73.5zM84.7 41.3h9.6l7.3 19.5h0.1l6.7-19.5h8.9l-11.3 28.7h-9.4L84.7 41.3zM147.7 65.1c-1.4 1.8-3.2 3.2-5.4 4.2 -2.2 1-4.4 1.5-6.7 1.5 -2.2 0-4.3-0.4-6.2-1.1 -1.9-0.7-3.6-1.7-5.1-3 -1.4-1.3-2.6-2.9-3.4-4.7 -0.8-1.8-1.2-3.9-1.2-6.2 0-2.3 0.4-4.3 1.2-6.2 0.8-1.8 2-3.4 3.4-4.7 1.4-1.3 3.1-2.3 5.1-3 1.9-0.7 4-1.1 6.2-1.1 2 0 3.9 0.4 5.6 1.1 1.7 0.7 3.1 1.7 4.2 3 1.2 1.3 2.1 2.9 2.7 4.8 0.6 1.8 0.9 3.9 0.9 6.2v2.8h-20.5c0.4 1.7 1.1 3 2.3 4 1.2 1 2.6 1.5 4.4 1.5 1.5 0 2.7-0.3 3.7-1 1-0.6 1.9-1.5 2.6-2.5L147.7 65.1zM140.2 52.4c0-1.5-0.5-2.8-1.5-3.8 -1-1.1-2.3-1.6-4-1.6 -1 0-1.8 0.2-2.6 0.5 -0.7 0.3-1.4 0.7-1.9 1.2 -0.5 0.5-0.9 1.1-1.2 1.7 -0.3 0.6-0.5 1.3-0.5 2H140.2zM154.4 41.3h8.9v4.6h0.1c0.9-1.8 2.1-3.1 3.4-4 1.3-0.9 2.9-1.3 4.9-1.3 0.5 0 1 0 1.5 0.1 0.5 0 1 0.1 1.4 0.2v8.1c-0.6-0.2-1.2-0.3-1.9-0.4 -0.6-0.1-1.2-0.1-1.9-0.1 -1.7 0-3 0.2-4 0.7 -1 0.5-1.7 1.1-2.3 2 -0.5 0.8-0.9 1.9-1 3 -0.2 1.2-0.2 2.5-0.2 3.9v12h-8.9V41.3zM196.8 50.6c-0.4-0.6-1-1.1-1.8-1.6 -0.8-0.4-1.6-0.6-2.5-0.6 -2.2 0-4 0.7-5.2 2 -1.2 1.3-1.9 3.1-1.9 5.3 0 2.2 0.6 3.9 1.9 5.3 1.2 1.3 3 2 5.2 2 1 0 1.8-0.2 2.5-0.6 0.7-0.4 1.3-0.9 1.8-1.5l5.8 6.1c-1.4 1.4-3 2.4-4.9 3 -1.9 0.6-3.6 0.9-5.3 0.9 -2.2 0-4.3-0.4-6.2-1.1 -1.9-0.7-3.6-1.7-5.1-3 -1.4-1.3-2.6-2.9-3.4-4.7 -0.8-1.8-1.2-3.9-1.2-6.2 0-2.3 0.4-4.3 1.2-6.2 0.8-1.8 2-3.4 3.4-4.7 1.4-1.3 3.1-2.3 5.1-3 1.9-0.7 4-1.1 6.2-1.1 1.7 0 3.5 0.3 5.3 0.9 1.9 0.6 3.5 1.6 4.9 3L196.8 50.6zM223.8 66.4h-0.1c-1 1.5-2.3 2.6-3.9 3.3 -1.6 0.7-3.4 1-5.2 1 -1.3 0-2.6-0.2-3.9-0.6 -1.2-0.4-2.3-0.9-3.3-1.7 -0.9-0.7-1.7-1.7-2.2-2.8 -0.6-1.1-0.8-2.4-0.8-3.8 0-1.7 0.3-3 0.9-4.2 0.6-1.1 1.4-2.1 2.5-2.8 1-0.7 2.2-1.3 3.6-1.7 1.3-0.4 2.7-0.7 4.2-0.9 1.4-0.2 2.9-0.3 4.3-0.4 1.4 0 2.8-0.1 4-0.1 0-1.6-0.6-2.8-1.7-3.7 -1.1-0.9-2.4-1.4-4-1.4 -1.5 0-2.8 0.3-4 0.9 -1.2 0.6-2.3 1.4-3.2 2.5l-4.7-4.8c1.7-1.5 3.6-2.7 5.8-3.5 2.2-0.8 4.5-1.2 6.8-1.2 2.6 0 4.7 0.3 6.4 1 1.7 0.6 3 1.6 4 2.9 1 1.3 1.7 2.8 2.1 4.6 0.4 1.8 0.6 3.9 0.6 6.3v14.6h-8.1V66.4zM221.6 57.5c-0.7 0-1.5 0-2.5 0.1 -1 0.1-2 0.2-2.9 0.5 -0.9 0.3-1.7 0.7-2.4 1.2s-1 1.3-1 2.3c0 1.1 0.5 1.8 1.4 2.4 0.9 0.5 1.8 0.8 2.8 0.8 0.9 0 1.7-0.1 2.5-0.4 0.8-0.2 1.5-0.6 2.2-1 0.6-0.4 1.1-1 1.5-1.7 0.4-0.7 0.6-1.5 0.6-2.4V57.5H221.6zM237.5 41.3h8.5v3.9h0.1c0.3-0.6 0.7-1.1 1.2-1.7 0.5-0.6 1.1-1 1.8-1.5 0.7-0.4 1.5-0.8 2.4-1.1 0.9-0.3 1.9-0.4 3-0.4 2 0 3.8 0.4 5.3 1.2 1.6 0.8 2.7 2.1 3.5 3.9 1-1.8 2.3-3.2 3.7-4 1.5-0.8 3.2-1.2 5.4-1.2 1.9 0 3.5 0.3 4.9 1 1.3 0.6 2.4 1.5 3.1 2.7 0.8 1.1 1.3 2.4 1.7 4 0.3 1.5 0.5 3.1 0.5 4.9v16.9h-8.8V53.3c0-1.3-0.3-2.5-0.9-3.5 -0.6-1-1.6-1.4-3-1.4 -1 0-1.9 0.2-2.6 0.5 -0.7 0.3-1.2 0.8-1.7 1.4 -0.4 0.6-0.7 1.3-0.9 2.1 -0.2 0.8-0.3 1.6-0.3 2.5v15.2h-8.8V54.9c0-0.5 0-1.1-0.1-1.9 0-0.7-0.2-1.5-0.4-2.1 -0.2-0.7-0.6-1.2-1.2-1.7 -0.5-0.5-1.3-0.7-2.3-0.7 -1.1 0-2.1 0.2-2.8 0.6 -0.7 0.4-1.2 1-1.6 1.7 -0.4 0.7-0.6 1.5-0.7 2.3 -0.1 0.9-0.2 1.8-0.2 2.7v14.3H237.5V41.3z"/></g><g enable-background="new    "><path fill="#4D4D4D" d="M306.8 32.3c0-1.4 0.5-2.6 1.5-3.6 1-1 2.2-1.5 3.6-1.5 1.4 0 2.6 0.5 3.6 1.5 1 1 1.5 2.2 1.5 3.6 0 1.4-0.5 2.6-1.5 3.6 -1 1-2.2 1.5-3.6 1.5 -1.4 0-2.6-0.5-3.6-1.5C307.3 34.9 306.8 33.7 306.8 32.3zM307.5 41.3h8.9v28.7h-8.8V41.3zM321.6 55.7c0-2.3 0.4-4.3 1.2-6.2 0.8-1.8 2-3.4 3.4-4.7 1.4-1.3 3.1-2.3 5.1-3 1.9-0.7 4-1.1 6.2-1.1 2.2 0 4.3 0.4 6.2 1.1 1.9 0.7 3.6 1.7 5.1 3 1.4 1.3 2.6 2.9 3.4 4.8 0.8 1.8 1.2 3.9 1.2 6.2 0 2.3-0.4 4.3-1.2 6.2 -0.8 1.8-2 3.4-3.4 4.8 -1.4 1.3-3.1 2.3-5.1 3 -1.9 0.7-4 1.1-6.2 1.1 -2.2 0-4.3-0.4-6.2-1.1 -1.9-0.7-3.6-1.7-5.1-3 -1.4-1.3-2.6-2.9-3.4-4.7C322 60 321.6 58 321.6 55.7zM330.5 55.7c0 2.2 0.6 3.9 1.9 5.3 1.2 1.3 3 2 5.2 2 2.2 0 4-0.7 5.2-2 1.2-1.3 1.9-3.1 1.9-5.3 0-2.2-0.6-3.9-1.9-5.3 -1.2-1.3-3-2-5.2-2 -2.2 0-4 0.7-5.2 2C331.1 51.8 330.5 53.5 330.5 55.7z"/></g><g enable-background="new    "><path fill="#EB5F53" d="M288.7 64.4c0-0.8 0.2-1.6 0.5-2.4 0.3-0.7 0.7-1.4 1.3-1.9 0.5-0.5 1.2-1 1.9-1.3 0.7-0.3 1.5-0.5 2.4-0.5 0.8 0 1.6 0.2 2.4 0.5 0.7 0.3 1.4 0.7 1.9 1.3 0.5 0.5 1 1.2 1.3 1.9 0.3 0.7 0.5 1.5 0.5 2.4 0 0.8-0.2 1.6-0.5 2.4 -0.3 0.7-0.7 1.4-1.3 1.9 -0.5 0.5-1.2 1-1.9 1.3 -0.7 0.3-1.5 0.5-2.4 0.5 -0.8 0-1.6-0.2-2.4-0.5 -0.7-0.3-1.4-0.7-1.9-1.3 -0.5-0.5-1-1.2-1.3-1.9C288.9 66 288.7 65.2 288.7 64.4z"/></g></svg>